# xmcd
#
# Track frame offsets:
#	150
#	23945
#	55583
#	84928
#	103020
#	126123
#	146905
#
# Disc length: 2939 seconds
#
# Revision: 1
# Processed by: cddbd v1.4PL0 Copyright (c) Steve Scherf et al.
# Submitted via: audiograbber 1.81.03
#
DISCID=570b7907
DTITLE=Janis Joplin - Turn On Your Lovelight
DYEAR=1990
DGENRE=Blues
TTITLE0=Raise Your Hand
TTITLE1=As Good As You've Been
TTITLE2=Try
TTITLE3=Maybe
TTITLE4=To Love Somebody
TTITLE5=Summertime
TTITLE6=Turn On Your Lovelight
EXTD=
EXTT0=
EXTT1=
EXTT2=
EXTT3=
EXTT4=
EXTT5=
EXTT6=
PLAYORDER=
